<mxfile host="65bd71144e">
    <diagram id="Vfg_s8rGCRNalU27XtB3" name="Page-1">
        <mxGraphModel dx="1010" dy="734" grid="1" gridSize="10" guides="1" tooltips="1" connect="1" arrows="1" fold="1" page="1" pageScale="1" pageWidth="1200" pageHeight="1000" math="0" shadow="0">
            <root>
                <mxCell id="0"/>
                <mxCell id="1" parent="0"/>
                <mxCell id="7" value="&lt;font style=&quot;font-size: 20px;&quot;&gt;Deployment Diagram for FreEzMenu Application&lt;/font&gt;" style="text;html=1;strokeColor=none;fillColor=none;align=center;verticalAlign=middle;whiteSpace=wrap;rounded=0;" parent="1" vertex="1">
                    <mxGeometry x="240" y="120" width="720" height="40" as="geometry"/>
                </mxCell>
                <mxCell id="98" value="" style="image;html=1;image=img/lib/clip_art/networking/Modem_128x128.png;strokeWidth=1;fontSize=14;" parent="1" vertex="1">
                    <mxGeometry x="544" y="295" width="80" height="80" as="geometry"/>
                </mxCell>
                <mxCell id="99" value="Old / New Modem" style="text;html=1;strokeColor=none;fillColor=none;align=center;verticalAlign=middle;whiteSpace=wrap;rounded=0;strokeWidth=1;fontSize=14;" parent="1" vertex="1">
                    <mxGeometry x="552" y="379" width="68" height="30" as="geometry"/>
                </mxCell>
                <mxCell id="109" value="" style="sketch=0;aspect=fixed;pointerEvents=1;shadow=0;dashed=0;html=1;strokeColor=none;labelPosition=center;verticalLabelPosition=bottom;verticalAlign=top;align=center;fillColor=#00188D;shape=mxgraph.mscae.enterprise.wireless_connection;strokeWidth=1;fontSize=14;rotation=-210;" parent="1" vertex="1">
                    <mxGeometry x="466" y="340" width="84" height="100" as="geometry"/>
                </mxCell>
                <mxCell id="110" value="" style="sketch=0;aspect=fixed;pointerEvents=1;shadow=0;dashed=0;html=1;strokeColor=none;labelPosition=center;verticalLabelPosition=bottom;verticalAlign=top;align=center;fillColor=#00188D;shape=mxgraph.mscae.enterprise.wireless_connection;strokeWidth=1;fontSize=14;rotation=30;" parent="1" vertex="1">
                    <mxGeometry x="620" y="344.76" width="80" height="95.24" as="geometry"/>
                </mxCell>
                <mxCell id="115" value="" style="html=1;dashed=0;whitespace=wrap;shape=mxgraph.dfd.externalEntity;flipH=1;" vertex="1" parent="1">
                    <mxGeometry x="120" y="440" width="360" height="312.38" as="geometry"/>
                </mxCell>
                <mxCell id="117" value="&lt;font style=&quot;font-size: 14px;&quot;&gt;Laptop / Desktop Device (Windowss 10 / Linux)&lt;/font&gt;" style="text;html=1;strokeColor=none;fillColor=none;align=center;verticalAlign=middle;whiteSpace=wrap;rounded=0;" vertex="1" parent="1">
                    <mxGeometry x="120" y="450" width="350" height="30" as="geometry"/>
                </mxCell>
                <mxCell id="118" value="" style="html=1;dashed=0;whitespace=wrap;shape=mxgraph.dfd.externalEntity;fontSize=14;flipH=1;" vertex="1" parent="1">
                    <mxGeometry x="140" y="480" width="300" height="200" as="geometry"/>
                </mxCell>
                <mxCell id="120" value="&lt;div style=&quot;text-align: left;&quot;&gt;&lt;span style=&quot;background-color: initial;&quot;&gt;RAM :8GB&lt;/span&gt;&lt;/div&gt;&lt;div style=&quot;text-align: left;&quot;&gt;&lt;span style=&quot;background-color: initial;&quot;&gt;ROM: 256GB&lt;/span&gt;&lt;/div&gt;" style="text;html=1;strokeColor=none;fillColor=none;align=center;verticalAlign=middle;whiteSpace=wrap;rounded=0;fontSize=14;" vertex="1" parent="1">
                    <mxGeometry x="120" y="690" width="130" height="60" as="geometry"/>
                </mxCell>
                <mxCell id="127" value="&lt;span style=&quot;white-space: pre;&quot;&gt;&#9;&lt;/span&gt;&lt;span style=&quot;white-space: pre;&quot;&gt;&#9;&lt;/span&gt;MySQL Workbench.sql" style="html=1;dashed=0;whitespace=wrap;shape=mxgraph.dfd.externalEntity;fontSize=14;flipH=1;align=left;" vertex="1" parent="1">
                    <mxGeometry x="150" y="593.0999999999999" width="270" height="53.81" as="geometry"/>
                </mxCell>
                <mxCell id="124" value="&amp;nbsp;configuration.json" style="html=1;dashed=0;whitespace=wrap;shape=mxgraph.dfd.externalEntity;fontSize=14;flipH=1;align=left;" vertex="1" parent="1">
                    <mxGeometry x="150" y="550" width="130" height="53.81" as="geometry"/>
                </mxCell>
                <mxCell id="125" value="&lt;span style=&quot;font-size: 14px;&quot;&gt;FreEzMenu (Designer &amp;amp; Queue).exe&lt;/span&gt;" style="text;html=1;strokeColor=none;fillColor=none;align=center;verticalAlign=middle;whiteSpace=wrap;rounded=0;" vertex="1" parent="1">
                    <mxGeometry x="160" y="510" width="260" height="30" as="geometry"/>
                </mxCell>
                <mxCell id="126" value="&amp;nbsp; &amp;nbsp; &amp;nbsp; database.sql" style="html=1;dashed=0;whitespace=wrap;shape=mxgraph.dfd.externalEntity;fontSize=14;flipH=1;align=left;" vertex="1" parent="1">
                    <mxGeometry x="290" y="550" width="130" height="53.81" as="geometry"/>
                </mxCell>
                <mxCell id="128" value="" style="html=1;dashed=0;whitespace=wrap;shape=mxgraph.dfd.externalEntity;fontSize=14;flipH=1;" vertex="1" parent="1">
                    <mxGeometry x="680" y="440" width="320" height="320" as="geometry"/>
                </mxCell>
                <mxCell id="131" value="&lt;font style=&quot;font-size: 14px;&quot;&gt;Android Tablet Device (android 4.2.2 above)&lt;/font&gt;" style="text;html=1;strokeColor=none;fillColor=none;align=center;verticalAlign=middle;whiteSpace=wrap;rounded=0;" vertex="1" parent="1">
                    <mxGeometry x="680" y="450" width="310" height="30" as="geometry"/>
                </mxCell>
                <mxCell id="132" value="" style="html=1;dashed=0;whitespace=wrap;shape=mxgraph.dfd.externalEntity;fontSize=14;flipH=1;" vertex="1" parent="1">
                    <mxGeometry x="700" y="490" width="270" height="180" as="geometry"/>
                </mxCell>
                <mxCell id="133" value="&lt;font style=&quot;font-size: 14px;&quot;&gt;FreEzMenu (order).apk&lt;/font&gt;" style="text;html=1;strokeColor=none;fillColor=none;align=center;verticalAlign=middle;whiteSpace=wrap;rounded=0;" vertex="1" parent="1">
                    <mxGeometry x="690" y="500" width="280" height="40" as="geometry"/>
                </mxCell>
                <mxCell id="134" value="configuartion.json" style="html=1;dashed=0;whitespace=wrap;shape=mxgraph.dfd.externalEntity;fontSize=14;flipH=1;" vertex="1" parent="1">
                    <mxGeometry x="730" y="565" width="200" height="70" as="geometry"/>
                </mxCell>
                <mxCell id="135" value="&lt;div style=&quot;text-align: left;&quot;&gt;&lt;span style=&quot;background-color: initial;&quot;&gt;RAM :2GB&lt;/span&gt;&lt;/div&gt;&lt;div style=&quot;text-align: left;&quot;&gt;&lt;span style=&quot;background-color: initial;&quot;&gt;ROM: 16GB&lt;/span&gt;&lt;/div&gt;" style="text;html=1;strokeColor=none;fillColor=none;align=center;verticalAlign=middle;whiteSpace=wrap;rounded=0;fontSize=14;" vertex="1" parent="1">
                    <mxGeometry x="680" y="680" width="130" height="60" as="geometry"/>
                </mxCell>
                <mxCell id="136" value="" style="edgeStyle=orthogonalEdgeStyle;html=1;endArrow=openThin;elbow=vertical;startArrow=openThin;startFill=0;endFill=0;strokeColor=#EBEBEB;rounded=0;fontSize=14;fillColor=#f5f5f5;strokeWidth=2;entryX=0;entryY=0;entryDx=320;entryDy=165;entryPerimeter=0;exitX=0;exitY=0;exitDx=0;exitDy=151.19;exitPerimeter=0;" edge="1" parent="1" source="115" target="128">
                    <mxGeometry width="100" relative="1" as="geometry">
                        <mxPoint x="510" y="520" as="sourcePoint"/>
                        <mxPoint x="610" y="520" as="targetPoint"/>
                    </mxGeometry>
                </mxCell>
                <mxCell id="137" value="via LAN wifi" style="text;html=1;strokeColor=none;fillColor=none;align=center;verticalAlign=middle;whiteSpace=wrap;rounded=0;fontSize=14;" vertex="1" parent="1">
                    <mxGeometry x="538" y="605" width="90" height="30" as="geometry"/>
                </mxCell>
            </root>
        </mxGraphModel>
    </diagram>
</mxfile>